<svg width="34" height="34" viewBox="0 0 34 34" fill="none" xmlns="http://www.w3.org/2000/svg">
<mask id="path-1-outside-1" maskUnits="userSpaceOnUse" x="11.6053" y="0" width="22" height="26" fill="black">
<rect fill="white" x="11.6053" width="22" height="26"/>
<path d="M32.8753 22.5614L24.7324 2.38896C24.4158 1.58503 23.6686 1.0532 22.7821 1.00373C21.8956 0.95426 21.0978 1.39951 20.6799 2.16633L12.8915 16.4886C12.5496 17.1318 12.5116 17.8738 12.7902 18.5417C13.0688 19.2096 13.6387 19.7167 14.3479 19.9393L30.6211 24.9237C30.8111 24.9731 30.9884 25.0102 31.1783 25.0102C31.6722 25.0102 32.1661 24.8124 32.5207 24.4413C32.9893 23.9218 33.1286 23.2045 32.8753 22.5614ZM32.1281 24.095C31.7735 24.466 31.2543 24.6021 30.7604 24.4537L14.4872 19.4693C13.93 19.2962 13.4741 18.888 13.2461 18.3562C13.0182 17.8244 13.0562 17.2307 13.3348 16.7236L21.1231 2.40133C21.4271 1.84476 22.0096 1.51082 22.6428 1.51082C22.6808 1.51082 22.7061 1.51082 22.7441 1.51082C23.428 1.54793 23.9978 1.95608 24.2511 2.57448L32.3814 22.7469C32.584 23.2045 32.4827 23.724 32.1281 24.095Z"/>
</mask>
<path d="M32.8753 22.5614L24.7324 2.38896C24.4158 1.58503 23.6686 1.0532 22.7821 1.00373C21.8956 0.95426 21.0978 1.39951 20.6799 2.16633L12.8915 16.4886C12.5496 17.1318 12.5116 17.8738 12.7902 18.5417C13.0688 19.2096 13.6387 19.7167 14.3479 19.9393L30.6211 24.9237C30.8111 24.9731 30.9884 25.0102 31.1783 25.0102C31.6722 25.0102 32.1661 24.8124 32.5207 24.4413C32.9893 23.9218 33.1286 23.2045 32.8753 22.5614ZM32.1281 24.095C31.7735 24.466 31.2543 24.6021 30.7604 24.4537L14.4872 19.4693C13.93 19.2962 13.4741 18.888 13.2461 18.3562C13.0182 17.8244 13.0562 17.2307 13.3348 16.7236L21.1231 2.40133C21.4271 1.84476 22.0096 1.51082 22.6428 1.51082C22.6808 1.51082 22.7061 1.51082 22.7441 1.51082C23.428 1.54793 23.9978 1.95608 24.2511 2.57448L32.3814 22.7469C32.584 23.2045 32.4827 23.724 32.1281 24.095Z" fill="#6523CF"/>
<path d="M32.8753 22.5614L24.7324 2.38896C24.4158 1.58503 23.6686 1.0532 22.7821 1.00373C21.8956 0.95426 21.0978 1.39951 20.6799 2.16633L12.8915 16.4886C12.5496 17.1318 12.5116 17.8738 12.7902 18.5417C13.0688 19.2096 13.6387 19.7167 14.3479 19.9393L30.6211 24.9237C30.8111 24.9731 30.9884 25.0102 31.1783 25.0102C31.6722 25.0102 32.1661 24.8124 32.5207 24.4413C32.9893 23.9218 33.1286 23.2045 32.8753 22.5614ZM32.1281 24.095C31.7735 24.466 31.2543 24.6021 30.7604 24.4537L14.4872 19.4693C13.93 19.2962 13.4741 18.888 13.2461 18.3562C13.0182 17.8244 13.0562 17.2307 13.3348 16.7236L21.1231 2.40133C21.4271 1.84476 22.0096 1.51082 22.6428 1.51082C22.6808 1.51082 22.7061 1.51082 22.7441 1.51082C23.428 1.54793 23.9978 1.95608 24.2511 2.57448L32.3814 22.7469C32.584 23.2045 32.4827 23.724 32.1281 24.095Z" stroke="#6523CF" stroke-width="1.2" mask="url(#path-1-outside-1)"/>
<mask id="path-2-outside-2" maskUnits="userSpaceOnUse" x="5.40771" y="2.72697" width="22" height="27" fill="black">
<rect fill="white" x="5.40771" y="2.72697" width="22" height="27"/>
<path d="M23.3521 11.3187C21.4905 8.89457 19.021 7.1012 16.3996 6.2849L8.37063 3.79891C7.90206 3.65049 7.42083 3.73707 7.02825 4.00917C6.63567 4.29364 6.40771 4.72652 6.40771 5.19651V22.9324C6.40771 23.996 7.10423 24.9236 8.14268 25.2452L16.2476 27.7683C17.2607 28.0899 18.2612 28.2507 19.2237 28.2507C20.794 28.2507 22.2504 27.8054 23.4154 26.9768C25.2391 25.6781 26.2395 23.5261 26.2395 20.9411V19.1354C26.2395 16.5257 25.2137 13.7429 23.3521 11.3187ZM16.3869 27.2489L8.28198 24.7258C7.45883 24.466 6.90161 23.7363 6.90161 22.8829V5.24598C6.90161 4.93678 7.05358 4.63994 7.30686 4.45442C7.5728 4.2689 7.90206 4.21943 8.206 4.31837L16.2476 6.81673C18.7804 7.60829 21.1613 9.32746 22.9469 11.665C24.7452 14.0026 25.7329 16.6741 25.7329 19.1848V20.8916C25.7329 23.3158 24.7958 25.3194 23.1115 26.5315C21.3385 27.7807 18.9577 28.0404 16.3869 27.2489Z"/>
</mask>
<path d="M23.3521 11.3187C21.4905 8.89457 19.021 7.1012 16.3996 6.2849L8.37063 3.79891C7.90206 3.65049 7.42083 3.73707 7.02825 4.00917C6.63567 4.29364 6.40771 4.72652 6.40771 5.19651V22.9324C6.40771 23.996 7.10423 24.9236 8.14268 25.2452L16.2476 27.7683C17.2607 28.0899 18.2612 28.2507 19.2237 28.2507C20.794 28.2507 22.2504 27.8054 23.4154 26.9768C25.2391 25.6781 26.2395 23.5261 26.2395 20.9411V19.1354C26.2395 16.5257 25.2137 13.7429 23.3521 11.3187ZM16.3869 27.2489L8.28198 24.7258C7.45883 24.466 6.90161 23.7363 6.90161 22.8829V5.24598C6.90161 4.93678 7.05358 4.63994 7.30686 4.45442C7.5728 4.2689 7.90206 4.21943 8.206 4.31837L16.2476 6.81673C18.7804 7.60829 21.1613 9.32746 22.9469 11.665C24.7452 14.0026 25.7329 16.6741 25.7329 19.1848V20.8916C25.7329 23.3158 24.7958 25.3194 23.1115 26.5315C21.3385 27.7807 18.9577 28.0404 16.3869 27.2489Z" fill="#FF2626"/>
<path d="M23.3521 11.3187C21.4905 8.89457 19.021 7.1012 16.3996 6.2849L8.37063 3.79891C7.90206 3.65049 7.42083 3.73707 7.02825 4.00917C6.63567 4.29364 6.40771 4.72652 6.40771 5.19651V22.9324C6.40771 23.996 7.10423 24.9236 8.14268 25.2452L16.2476 27.7683C17.2607 28.0899 18.2612 28.2507 19.2237 28.2507C20.794 28.2507 22.2504 27.8054 23.4154 26.9768C25.2391 25.6781 26.2395 23.5261 26.2395 20.9411V19.1354C26.2395 16.5257 25.2137 13.7429 23.3521 11.3187ZM16.3869 27.2489L8.28198 24.7258C7.45883 24.466 6.90161 23.7363 6.90161 22.8829V5.24598C6.90161 4.93678 7.05358 4.63994 7.30686 4.45442C7.5728 4.2689 7.90206 4.21943 8.206 4.31837L16.2476 6.81673C18.7804 7.60829 21.1613 9.32746 22.9469 11.665C24.7452 14.0026 25.7329 16.6741 25.7329 19.1848V20.8916C25.7329 23.3158 24.7958 25.3194 23.1115 26.5315C21.3385 27.7807 18.9577 28.0404 16.3869 27.2489Z" stroke="#FF2626" stroke-width="1.2" mask="url(#path-2-outside-2)"/>
<mask id="path-3-outside-3" maskUnits="userSpaceOnUse" x="0" y="8.42871" width="12" height="26" fill="black">
<rect fill="white" y="8.42871" width="12" height="26"/>
<path d="M9.44687 11.5167L2.96292 9.50065C2.49435 9.35224 2.01312 9.43881 1.62053 9.71091C1.22795 9.99538 1 10.4283 1 10.9106V28.597C1 29.6607 1.69652 30.5883 2.73496 30.9098L9.20626 32.9258C9.35823 32.9753 9.51019 33.0001 9.66216 33.0001C9.97876 33.0001 10.2827 32.9011 10.5486 32.7156C10.9412 32.4311 11.1692 31.9982 11.1692 31.5283V13.8419C11.1692 12.7658 10.4853 11.8382 9.44687 11.5167ZM10.2574 32.3074C9.99142 32.493 9.67482 32.5424 9.35822 32.4559L2.88693 30.4399C2.06377 30.1801 1.50656 29.438 1.50656 28.597V10.9106C1.50656 10.589 1.65853 10.3046 1.91181 10.1191C2.0891 9.99538 2.29173 9.93354 2.49435 9.93354C2.59566 9.93354 2.69697 9.94591 2.79828 9.98301L9.26958 11.999C10.0927 12.2587 10.6499 13.0008 10.6499 13.8419V31.5283C10.6626 31.8375 10.5233 32.1219 10.2574 32.3074Z"/>
</mask>
<path d="M9.44687 11.5167L2.96292 9.50065C2.49435 9.35224 2.01312 9.43881 1.62053 9.71091C1.22795 9.99538 1 10.4283 1 10.9106V28.597C1 29.6607 1.69652 30.5883 2.73496 30.9098L9.20626 32.9258C9.35823 32.9753 9.51019 33.0001 9.66216 33.0001C9.97876 33.0001 10.2827 32.9011 10.5486 32.7156C10.9412 32.4311 11.1692 31.9982 11.1692 31.5283V13.8419C11.1692 12.7658 10.4853 11.8382 9.44687 11.5167ZM10.2574 32.3074C9.99142 32.493 9.67482 32.5424 9.35822 32.4559L2.88693 30.4399C2.06377 30.1801 1.50656 29.438 1.50656 28.597V10.9106C1.50656 10.589 1.65853 10.3046 1.91181 10.1191C2.0891 9.99538 2.29173 9.93354 2.49435 9.93354C2.59566 9.93354 2.69697 9.94591 2.79828 9.98301L9.26958 11.999C10.0927 12.2587 10.6499 13.0008 10.6499 13.8419V31.5283C10.6626 31.8375 10.5233 32.1219 10.2574 32.3074Z" fill="#48FEA7"/>
<path d="M9.44687 11.5167L2.96292 9.50065C2.49435 9.35224 2.01312 9.43881 1.62053 9.71091C1.22795 9.99538 1 10.4283 1 10.9106V28.597C1 29.6607 1.69652 30.5883 2.73496 30.9098L9.20626 32.9258C9.35823 32.9753 9.51019 33.0001 9.66216 33.0001C9.97876 33.0001 10.2827 32.9011 10.5486 32.7156C10.9412 32.4311 11.1692 31.9982 11.1692 31.5283V13.8419C11.1692 12.7658 10.4853 11.8382 9.44687 11.5167ZM10.2574 32.3074C9.99142 32.493 9.67482 32.5424 9.35822 32.4559L2.88693 30.4399C2.06377 30.1801 1.50656 29.438 1.50656 28.597V10.9106C1.50656 10.589 1.65853 10.3046 1.91181 10.1191C2.0891 9.99538 2.29173 9.93354 2.49435 9.93354C2.59566 9.93354 2.69697 9.94591 2.79828 9.98301L9.26958 11.999C10.0927 12.2587 10.6499 13.0008 10.6499 13.8419V31.5283C10.6626 31.8375 10.5233 32.1219 10.2574 32.3074Z" stroke="#48FEA7" stroke-width="1.2" mask="url(#path-3-outside-3)"/>
</svg>
